# xmcd CD database file
# Copyright (C) 1997 Ti Kan
#
# Track frame offsets:
#  150
#  11782
#  24402
#  37165
#  54150
#  69622
#  84217
#  105695
#  117255
#  129442
#  142812
#  157752
#  171267
#  186975
#  200860
#  212355
#  228240
#  243332
#  257502
#  269812
#
# Disc length: 3803 seconds
#
# Revision: 1
# Processed by: cddbd v1.4b41PL1 Copyright (c) Steve Scherf et al.
# Submitted via: CDWizzard Release:4.32
#
DISCID=120ed914
DTITLE=Various Artist - Country Hit Parade ( Disc 2 )
DYEAR=1900
DGENRE=
TTITLE0=Whatcha Gonna do with a Cowboy ( Chris LeDoux - Duet with Garth Br
TTITLE0=ooks )
TTITLE1=Haunted Heart ( Sammy Kershaw )
TTITLE2=Time Passes By ( Kathy Mattea )
TTITLE3=You and Forever and Me ( Little Texas )
TTITLE4=She Never Cried ( Confederate Railroad )
TTITLE5=Every Thing ( Carline Carter )
TTITLE6=A Cowboy's Born with a Broken Heart ( Boy Howdy )
TTITLE7=I Want You Bad, and that Ain't Good ( Collin Raye )
TTITLE8=Better Clase of Losers ( Randy Travis )
TTITLE9=All My Rowdy Friends are Comin' Over Tonight ( Hank Williams Jr. 
TTITLE9=)
TTITLE10=Wild Man ( Ricky Van Shelton )
TTITLE11=Warning Labels ( Doug Stone )
TTITLE12=Soon ( Tanya Tucker )
TTITLE13=He Ain't Worth Missing ( Toby Keith )
TTITLE14=Trouble on the Line ( Sawyer Brown )
TTITLE15=I Know Where Love Lives ( Hal Ketchum )
TTITLE16=Just Like the Weather ( Suzy Bogguss )
TTITLE17=Billy the Kid ( Billy Dean )
TTITLE18=New Way, to Light Up an Old Flame ( Joe Diffie ) 
TTITLE19=Kiss Me in the Car ( John Berry )
EXTD=
EXTT0=
EXTT1=
EXTT2=
EXTT3=
EXTT4=
EXTT5=
EXTT6=
EXTT7=
EXTT8=
EXTT9=
EXTT10=
EXTT11=
EXTT12=
EXTT13=
EXTT14=
EXTT15=
EXTT16=
EXTT17=
EXTT18=
EXTT19=
PLAYORDER=
